<svg width="450" height="450" viewBox="0 0 450 450" fill="none" xmlns="http://www.w3.org/2000/svg">
<rect width="450" height="450" fill="#F5A623"/>
<path d="M223.798 8.71411L220.85 8.91065L220.81 25.499C220.771 34.6187 220.614 42.4019 220.496 42.7949C220.299 43.306 219.867 42.7556 218.884 40.7116C215.111 33.1643 205.991 25.9314 197.264 23.6122C191.329 22.0398 180.558 22.5902 179.182 24.5556C178.003 26.2459 178.907 30.2947 180.479 30.3733C180.833 30.3733 184.253 30.4126 188.027 30.4519C194.513 30.5306 195.063 30.6092 197.382 31.5526C203.436 34.147 208.782 38.6675 212.202 44.2101C213.853 46.9224 216.604 53.7621 216.211 54.1945C216.133 54.2732 215.622 53.9194 215.111 53.4084C211.376 49.7526 203.907 45.6645 199.112 44.6818C193.058 43.4239 186.336 44.1708 180.715 46.6472C176.588 48.4947 171.36 52.4256 168.805 55.649C166.485 58.5578 167.586 61.5846 171.085 62.0563C172.618 62.2529 172.736 62.2136 176.195 58.8723C178.907 56.2779 180.44 55.1379 182.641 54.1159C186.494 52.347 188.223 51.9932 192.94 51.9539C197.618 51.9539 201.117 52.7794 204.419 54.7449C207.603 56.6317 215.975 65.1224 215.307 65.7907C215.228 65.9086 213.656 65.6727 211.887 65.2403C203.829 63.3142 194.159 65.9086 187.869 71.6477C184.882 74.3993 182.759 77.4261 181.698 80.5315C180.715 83.4011 180.755 83.6369 182.091 85.0127C182.956 85.8775 183.624 86.1527 184.764 86.1527C186.769 86.1527 187.909 85.2879 188.42 83.4011C188.813 81.9466 191.604 78.173 193.373 76.6792C194.945 75.382 198.326 73.5345 200.684 72.7483C202.768 72.0408 203.75 71.9622 206.895 72.1194C211.573 72.3946 214.678 73.4559 218.57 76.0503C221.479 77.9764 221.518 78.055 221.321 79.4309C221.203 80.217 220.221 86.8602 219.12 94.1717C218.059 101.483 216.997 107.655 216.801 107.851C216.604 108.048 215.228 108.362 213.774 108.598C200.92 110.406 186.769 117.836 179.497 126.602C177.138 129.432 172.146 139.023 172.382 140.281C172.5 140.949 174.504 140.989 230.48 141.107C269.75 141.185 288.579 141.342 288.893 141.618C289.758 142.325 295.537 151.091 297.699 154.943C298.839 156.987 301.197 161.075 302.927 163.984C307.172 171.139 321.48 198.694 325.215 206.831C326.158 208.875 327.966 212.845 329.264 215.676C332.959 223.773 334.728 228.412 337.951 238.475C342.904 254.08 343.926 259.505 345.655 279.592C345.891 282.068 346.049 292.564 346.049 302.863V321.613H340.034H334.02L331.976 325.583C330.836 327.785 329.971 329.671 330.089 329.75C330.168 329.829 335.435 329.907 341.764 329.868C350.373 329.868 353.36 329.711 353.596 329.357C354.028 328.649 353.989 290.677 353.517 281.439C352.967 271.023 352.259 265.519 350.137 254.867C347.739 242.995 344.712 233.129 340.074 221.965C338.776 218.938 337.204 215.047 336.536 213.317C334.688 208.639 318.611 176.76 315.152 170.863C313.501 168.033 311.535 164.495 310.828 163.002C310.12 161.469 308.469 158.481 307.172 156.319C305.875 154.196 304.892 152.349 305.01 152.231C305.442 151.799 314.995 162.019 318.572 166.736C327.573 178.686 332.919 187.412 337.008 197.043C338.894 201.367 339.798 202.507 341.567 202.507C343.061 202.507 345.302 201.603 346.049 200.738C347.306 199.244 344.909 192.876 340.074 185.015C332.605 172.75 331.819 171.571 326.748 165.203C323.682 161.351 315.112 152.034 312.125 149.283C308.233 145.706 305.167 143.19 302.14 141.067C300.332 139.809 298.878 138.669 298.878 138.512C298.878 138.355 299.861 137.805 301.079 137.294C306.111 135.132 307.919 132.773 308.233 127.977C308.43 124.872 307.762 123.103 305.56 120.862C301.629 116.853 295.969 116.971 291.763 121.138C289.719 123.182 289.208 124.046 287.675 128.488C287.4 129.353 286.81 129.078 284.255 126.837C277.966 121.295 265.898 114.494 257.603 111.743C252.533 110.053 240.976 107.773 236.18 107.497C234.018 107.38 232.053 107.104 231.817 106.908C231.581 106.751 231.267 105.493 231.109 104.117C230.755 100.815 229.026 88.354 228.318 83.9514C227.414 78.3302 227.454 77.7799 229.222 76.6006C239.089 70.1146 249.034 70.547 256.188 77.7799C257.603 79.195 259.294 81.4356 259.962 82.6935C261.456 85.5237 262.596 86.3492 264.522 86.0348C266.645 85.681 267.431 84.7769 267.431 82.6542C267.431 79.195 264.05 73.8097 259.923 70.665C256.817 68.3064 251.589 65.7907 248.327 65.1224C244.828 64.3755 240.897 64.3755 237.006 65.1224C235.276 65.4369 233.822 65.6334 233.704 65.5548C233.389 65.2403 237.438 60.4053 239.954 58.0861C244.199 54.1552 250.056 51.9539 256.188 51.9539C262.949 51.9539 268.453 54.3518 273.209 59.2654C275.804 61.9777 276.118 62.1742 277.651 62.1742C279.695 62.1742 281.582 60.5233 281.582 58.7151C281.582 54.4697 269.986 46.0576 261.967 44.4459C258.114 43.699 250.685 44.1708 246.754 45.4286C242.981 46.6472 237.988 49.5561 234.962 52.347C233.743 53.4477 232.682 54.2732 232.603 54.1945C232.289 53.8801 233.704 49.6347 235.001 47.0796C238.696 39.8861 244.671 34.3042 251.786 31.3954C253.673 30.6092 254.577 30.5306 261.023 30.5306C267.667 30.5306 268.217 30.4913 269.278 29.7051C270.143 29.0761 270.418 28.4865 270.497 27.2286C270.615 25.8528 270.418 25.4204 269.475 24.477C268.099 23.0619 265.74 22.6688 259.176 22.7081C253.869 22.7081 250.253 23.5729 245.496 25.9707C239.403 29.0368 235.433 32.6139 231.227 38.7854C229.851 40.8295 228.593 42.5198 228.476 42.5198C228.358 42.5198 228.279 34.9725 228.279 25.7742C228.318 6.43419 228.829 8.36033 223.798 8.71411ZM240.229 115.477C252.729 117.01 262.478 120.705 273.524 128.056C279.381 131.948 280.363 132.812 279.616 133.323C279.066 133.716 192.744 133.795 186.965 133.402C185.59 133.323 184.489 133.088 184.489 132.852C184.489 132.655 186.336 130.65 188.616 128.449C192.154 124.99 193.294 124.125 196.95 122.199C202.06 119.565 205.441 118.268 210.433 117.05C220.574 114.494 228.751 114.101 240.229 115.477ZM300.568 126.326C301.236 127.191 301.276 127.624 301.001 128.685C300.686 129.707 300.057 130.336 297.895 131.633C294.672 133.599 293.768 133.756 293.768 132.341C293.768 130.886 295.261 127.348 296.441 126.13C297.777 124.715 299.428 124.793 300.568 126.326Z" fill="#0A0A0F"/>
<path d="M182.641 147.75C171.438 147.868 170.377 147.946 170.18 148.575C169.748 149.99 168.805 157.656 168.569 161.626C168.215 167.168 167.704 170.038 166.643 172.2C166.131 173.183 164.245 176.996 162.397 180.691C157.287 190.872 156.973 192.09 158.977 193.545C159.528 193.977 161.1 194.724 162.476 195.196C165.62 196.336 165.935 196.807 165.306 199.166C164.481 202.311 164.677 203.647 166.21 205.101C167.586 206.359 167.586 206.438 166.996 207.381C165.896 209.072 166.367 210.723 168.372 212.138C170.338 213.514 170.18 212.963 169.944 219.095C169.866 221.022 169.984 221.572 170.849 222.673C172.578 224.952 174.19 225.463 179.968 225.621C186.218 225.817 194.945 225.11 198.994 224.127C203.711 222.908 209.371 219.882 213.538 216.226C215.543 214.536 217.39 213.12 217.665 213.12C218.255 213.12 220.653 215.558 220.653 216.147C220.653 217.012 216.329 221.257 213.499 223.223C210.157 225.542 206.462 227.429 204.615 227.861C203.907 228.019 203.239 228.333 203.121 228.608C202.807 229.473 206.738 243.27 208.507 247.594C209.843 250.739 213.577 255.456 216.25 257.264C218.216 258.64 223.876 260.684 225.763 260.684C227.768 260.684 228.043 261.038 228.358 263.75C228.672 266.777 228.279 267.406 226.235 267.092C221.4 266.384 217.705 264.89 213.302 261.785C208.231 258.247 204.851 254.277 202.728 249.324C201.549 246.612 201.392 246.572 197.775 247.555C195.928 248.105 195.495 248.341 195.495 249.049C195.495 250.346 197.932 255.967 199.387 258.09C201.274 260.802 205.44 265.126 208.153 267.17C212.398 270.354 220.181 273.42 225.291 273.931L228.318 274.246L228.436 277.351L228.554 280.457L225.881 280.26C215.739 279.474 202.414 272.084 196.321 263.829C193.53 260.095 191.368 256.282 190.228 253.137C189.795 251.8 189.127 250.582 188.773 250.346C188.38 250.11 187.437 250.15 186.061 250.425C182.641 251.132 182.681 251.093 183.899 254.827C186.415 262.532 188.97 266.581 195.338 273.106C199.348 277.194 203.239 279.946 208.978 282.737C213.459 284.859 220.299 286.825 225.213 287.296L228.318 287.611L228.436 290.48C228.515 292.682 228.436 293.389 228.004 293.547C227.139 293.861 218.491 292.642 215.228 291.738C211.455 290.677 201.785 285.96 198.601 283.641C197.225 282.619 194.277 280.221 192.036 278.255C189.795 276.329 187.869 274.875 187.712 274.993C187.594 275.15 187.869 276.172 188.38 277.312C188.852 278.413 190.031 281.321 191.014 283.719C192.586 287.572 193.019 288.318 194.709 289.734C198.876 293.232 204.143 295.787 212.595 298.342C217.469 299.836 220.692 300.386 224.82 300.386C227.375 300.386 228.082 300.504 228.279 301.015C228.593 301.841 228.593 303.885 228.24 305.496L228.004 306.794L224.427 306.558C219.906 306.243 210.393 304.239 207.17 302.902C205.834 302.352 203.632 301.29 202.256 300.504C199.701 299.089 198.443 299.011 198.915 300.268C199.033 300.661 200.134 302.391 201.352 304.121C202.571 305.85 204.3 308.405 205.244 309.82C209.607 316.424 221.085 328.728 227.925 334.074C233.35 338.319 243.177 344.137 251.314 347.872C255.599 349.876 261.967 351.999 262.36 351.567C262.517 351.409 266.959 342.722 272.266 332.227C277.533 321.731 282.171 312.611 282.486 311.982C282.84 311.314 284.098 308.72 285.277 306.204C288.697 298.853 288.893 298.657 292.824 299.639C294.043 299.954 294.554 300.268 294.554 300.779C294.554 301.173 293.335 303.963 291.841 306.99C289.326 312.061 289.168 312.533 289.758 313.083C290.662 313.869 321.598 329.082 322.267 329.082C323.289 329.082 333.43 306.912 335.003 301.173C336.732 294.922 337.007 286.274 335.632 280.889C334.374 276.054 331.19 270.629 327.495 266.934C323.249 262.768 318.532 260.291 309.137 257.304C305.206 256.046 303.713 255.731 303.32 256.046C303.044 256.242 302.455 257.697 301.983 259.23C299.192 268.625 292.51 279.277 284.844 286.668C278.712 292.564 273.052 296.809 272.108 296.22C271.676 295.984 271.637 290.127 272.069 289.576C272.226 289.341 273.877 287.965 275.725 286.55C280.206 283.051 286.063 276.88 288.775 272.831C292.863 266.62 297.974 255.299 297.03 254.356C296.598 253.923 292.47 252.823 291.213 252.823C290.466 252.823 290.19 253.176 289.601 254.867C288.343 258.64 285.277 265.205 283.547 267.76C281.031 271.573 274.663 278.531 272.698 279.671C272.226 279.946 272.148 279.277 272.148 276.015V272.084L274.31 269.686C277.258 266.502 279.695 262.65 281.975 257.618C284.962 250.936 284.962 250.818 280.992 250.15C278.162 249.678 277.494 249.953 276.825 251.918C275.803 255.102 272.895 260.291 272.148 260.291C271.951 260.291 271.715 257.579 271.676 254.277L271.558 248.302L270.182 247.634C269.435 247.28 267.784 246.848 266.566 246.73L264.286 246.454V283.994V321.535L263.421 321.731C262.045 322.006 236.534 321.77 236.023 321.456C235.708 321.259 235.59 305.811 235.59 260.213C235.59 226.682 235.512 199.166 235.433 199.087C235.355 198.969 234.293 198.773 233.075 198.615C228.829 198.026 225.96 194.881 226.982 191.894C227.375 190.754 228.358 189.928 229.262 189.928C229.458 189.928 230.402 190.714 231.266 191.658C232.17 192.601 233.35 193.505 233.9 193.663C235.197 193.977 238.853 192.876 240.111 191.776C241.526 190.518 244.789 184.897 246.243 181.123C247.383 178.332 247.54 177.467 247.54 174.008C247.58 170.706 247.422 169.802 246.715 168.505C244.317 163.945 240.072 162.137 236.18 163.945C233.35 165.282 232.21 166.815 230.716 171.453L229.891 174.008H227.611C226.196 174.008 225.213 173.812 225.016 173.497C224.859 173.222 224.505 171.532 224.23 169.763C223.169 162.687 221.832 159.307 218.766 156.005C213.577 150.462 207.917 148.104 198.837 147.75C196.675 147.671 189.402 147.671 182.641 147.75ZM195.888 157.027C197.5 157.577 200.33 158.56 202.138 159.228C204.851 160.25 206.266 160.486 210.393 160.761L215.346 161.036V162.805V164.574L209.45 164.535H203.554L199.426 162.923C190.346 159.385 185.668 159.228 178.868 162.294C177.177 163.041 175.566 163.552 175.251 163.434C174.426 163.12 174.033 160.486 174.701 159.857C175.644 158.992 179.182 157.302 181.776 156.516C185.354 155.415 191.8 155.651 195.888 157.027ZM192.115 167.326C193.412 167.679 195.731 168.466 197.343 169.094C200.212 170.234 200.409 170.274 207.406 170.274C211.337 170.274 214.796 170.431 215.071 170.628C215.425 170.824 215.543 171.571 215.464 172.672L215.346 174.401L207.484 174.598L199.623 174.794L196.753 176.288C192.665 178.411 189.206 179.236 185.825 178.843C184.332 178.686 180.597 178.411 177.531 178.293C173.404 178.096 171.91 177.9 171.91 177.546C171.91 176.799 175.055 172.711 177.335 170.51C180.833 167.129 186.572 165.91 192.115 167.326Z" fill="#0A0A0F"/>
<path d="M96.2009 221.808C95.8864 222.319 96.3188 225.739 97.6553 233.168C98.3236 236.745 99.1098 241.148 99.4242 242.995C100.21 247.437 101.468 252.508 101.94 252.98C102.137 253.176 103.788 252.98 106.067 252.429C109.251 251.722 110.038 251.643 111.02 252.036C114.401 253.451 114.676 257.815 111.492 259.033C110.902 259.269 108.819 259.662 106.932 259.898C104.495 260.252 103.394 260.566 103.237 260.959C103.001 261.51 104.141 269.647 104.574 270.787C104.81 271.416 106.618 271.455 109.448 270.905C114.676 269.883 117.035 270.551 117.506 273.106C118.096 276.172 116.484 277.351 110.706 278.02C108.583 278.255 106.618 278.688 106.343 278.924C105.95 279.317 105.95 279.867 106.421 281.95C106.736 283.326 107.089 285.37 107.247 286.432C107.64 289.576 107.522 289.537 112.514 288.79C117.742 288.043 119 288.201 120.061 289.891C120.926 291.345 121.005 292.092 120.376 293.468C119.747 294.804 117.939 295.591 114.283 296.062C109.016 296.77 109.369 296.534 109.645 299.128C109.88 301.723 111.02 307.108 111.374 307.541C111.492 307.737 113.536 307.541 115.934 307.187C118.332 306.833 120.73 306.676 121.319 306.833C123.992 307.501 124.818 310.567 122.852 312.572C121.712 313.673 121.005 313.869 116.17 314.38C112.475 314.734 112.475 314.734 113.575 320.906C114.086 323.775 114.755 327.077 115.03 328.178L115.502 330.261L124.307 334.585C129.142 336.983 133.112 338.909 133.191 338.83C133.466 338.516 132.601 287.493 132.247 284.23C131.775 279.867 129.378 265.244 128.513 261.47C126.272 251.918 122.42 243.074 117.035 235.33C114.362 231.478 113.261 230.338 109.409 227.429C105.635 224.599 96.8299 220.825 96.2009 221.808Z" fill="#0A0A0F"/>
<path d="M171.713 254.591C169.984 255.102 166.918 255.81 164.874 256.203C162.79 256.596 161.139 257.146 161.021 257.422C160.904 257.697 161.179 259.387 161.611 261.195C166.132 279.238 167.625 290.677 166.839 301.408C166.328 308.248 165.621 312.218 163.655 320.041C161.179 329.868 160.393 334.939 160.668 339.302C161.061 345.67 162.908 351.527 166.25 356.873L168.058 359.782L177.61 364.46C182.838 367.054 187.241 369.177 187.358 369.177C187.516 369.177 198.876 374.562 205.126 377.668C206.659 378.415 208.114 379.004 208.389 379.004C208.664 379.004 208.86 378.454 208.86 377.51C208.86 375.348 209.882 372.164 211.022 370.789C211.573 370.16 212.949 369.177 214.049 368.627C217.823 366.74 221.557 367.487 225.213 370.828C229.458 374.719 230.205 380.97 226.432 380.97C224.741 380.97 223.641 380.144 222.658 378.1C221.439 375.624 219.749 374.13 218.098 374.13C215.307 374.13 214.324 376.685 215.936 379.987C216.919 382.07 217.39 382.621 219.277 383.8C221.99 385.529 241.015 394.413 241.448 394.177C241.801 393.942 248.445 380.655 252.257 372.518C253.358 370.12 255.481 365.914 256.935 363.163C258.429 360.372 259.569 357.935 259.49 357.699C259.412 357.463 257.486 356.677 255.245 355.969C249.86 354.2 241.172 349.955 233.822 345.474C223.13 338.988 213.971 330.851 204.969 319.844C198.522 311.943 191.211 299.561 186.612 288.79C184.843 284.663 183.074 280.182 182.602 278.766C179.811 269.843 178.907 266.502 177.806 260.881C177.099 257.422 176.391 254.356 176.155 254.08C175.644 253.491 175.566 253.491 171.713 254.591ZM172.46 264.183C174.033 265.912 175.566 272.359 174.662 273.46C173.797 274.482 171.478 274.089 170.023 272.634C169.237 271.848 167.586 268.074 167.586 267.052C167.586 265.952 168.569 263.986 169.237 263.711C170.338 263.239 171.831 263.475 172.46 264.183ZM179.575 285.921C180.912 286.51 181.58 288.947 180.951 291.07C180.401 292.918 178.553 294.765 176.666 295.276C174.74 295.787 174.19 295.787 173.168 295.04C172.46 294.569 172.303 294.058 172.303 292.603C172.382 287.336 175.762 284.191 179.575 285.921ZM185.472 304.081C190.149 306.047 193.333 312.887 191.958 318.036C191.014 321.613 187.909 323.107 185.865 321.023C184.725 319.923 184.646 319.097 185.472 317.171C186.572 314.498 185.943 311.196 184.135 310.214C183.074 309.663 180.047 309.703 179.457 310.292C178.828 310.921 178.868 312.729 179.575 315.049C180.126 316.935 180.126 316.975 179.143 317.957C178.357 318.744 177.885 318.901 176.981 318.704C174.308 318.193 172.932 316.346 172.578 312.69C172.421 311.039 172.539 310.253 173.325 308.72C174.504 306.361 176.47 304.435 178.435 303.688C180.165 303.059 183.388 303.217 185.472 304.081ZM202.099 327.627C203.121 329.789 201.863 331.991 199.623 331.991C197.618 331.991 196.517 330.654 196.832 328.689C197.107 326.92 198.05 326.252 200.016 326.409C201.274 326.487 201.667 326.723 202.099 327.627ZM184.607 328.925C188.577 330.929 191.053 334.428 190.66 337.415C190.346 339.735 189.442 340.874 187.909 340.874C186.218 340.874 185.511 340.285 184.489 338.005C184.017 336.983 183.074 335.725 182.366 335.175C180.047 333.366 179.772 333.013 179.772 331.794C179.772 328.885 181.973 327.588 184.607 328.925ZM174.74 331.204C175.605 332.227 175.605 333.563 174.819 336.747C174.19 339.224 174.19 339.263 175.173 341.425C176.352 343.98 176.981 344.255 180.912 343.901C184.371 343.547 185.157 343.823 185.668 345.434C186.258 347.203 185.55 348.658 183.506 349.798C181.698 350.82 179.693 350.938 176.745 350.151C173.836 349.365 172.225 348.265 170.574 345.867C168.805 343.272 168.372 341.818 168.372 338.201C168.372 335.135 169.001 333.052 170.456 331.519C172.067 329.75 173.482 329.671 174.74 331.204ZM212.32 338.595C215.779 339.459 219.867 344.53 220.692 348.933C221.282 352.195 220.85 354.515 219.395 355.89C217.901 357.266 216.368 357.306 215.15 356.008C214.324 355.144 214.285 354.79 214.482 352.589C214.993 346.692 211.14 343.076 207.013 345.592C204.851 346.889 205.165 347.871 209.332 352.471C210.787 354.043 211.022 355.458 210.236 357.188C209.371 358.957 208.114 358.996 205.558 357.345C202.257 355.144 199.426 350.427 199.426 347.125C199.426 344.137 202.885 339.735 205.873 338.948C209.489 338.005 209.961 338.005 212.32 338.595ZM193.884 356.677C197.697 359.035 198.758 365.246 195.338 365.246C192.862 365.246 187.241 361.001 187.241 359.114C187.241 357.659 187.948 356.598 189.324 355.969C190.778 355.34 191.997 355.537 193.884 356.677ZM238.617 356.598C239.325 357.03 239.993 357.817 240.15 358.367C240.465 359.586 239.482 361.197 238.146 361.708C237.674 361.905 237.124 362.219 237.006 362.455C236.652 363.005 237.674 365.285 238.657 366.15C239.403 366.818 239.679 366.858 241.644 366.386C244.435 365.796 245.536 366.229 246.204 368.194C246.754 369.884 246.125 371.103 244.121 372.322C242.587 373.265 238.578 373.383 236.613 372.557C234.647 371.732 232.603 369.767 231.66 367.683C230.402 365.089 230.402 360.843 231.66 358.603C233.193 355.93 236.141 355.065 238.617 356.598Z" fill="#0A0A0F"/>
<path d="M150.094 261.274C144.905 263.829 140.306 267.052 138.262 269.529L136.807 271.337L137.633 279.277C138.812 289.969 139.284 300.386 139.284 315.913C139.284 323.028 139.441 329.082 139.598 329.318C139.755 329.554 141.131 330.536 142.664 331.519C144.197 332.502 147.263 335.096 149.543 337.297C151.784 339.459 153.749 341.268 153.946 341.268C154.103 341.268 154.221 340.088 154.221 338.595C154.221 335.45 155.164 328.492 155.99 325.741C156.855 322.714 158.781 313.712 159.764 308.248C161.572 298.028 160.864 286.196 157.484 269.725C155.636 260.606 155.243 259.112 154.732 259.112C154.535 259.112 152.491 260.095 150.094 261.274Z" fill="#0A0A0F"/>
<path d="M281.228 328.374C276.55 337.808 276.393 338.28 277.101 338.791C278.791 340.01 308.43 354.672 308.862 354.515C309.137 354.397 310.317 352.471 311.457 350.269C312.597 348.029 314.326 344.884 315.309 343.233C319.515 336.315 319.79 335.725 319.083 334.939C318.768 334.585 317.117 333.602 315.466 332.777C313.776 331.991 306.622 328.414 299.546 324.876C292.431 321.377 286.535 318.468 286.378 318.468C286.22 318.508 283.901 322.95 281.228 328.374Z" fill="#0A0A0F"/>
<path d="M101.154 331.755C100.446 332.305 100.25 332.934 100.211 334.31C100.171 336.472 101.233 337.808 104.417 339.538C110.627 342.879 111.925 344.176 110.706 345.867C108.701 348.736 108.583 349.562 109.959 352.549C110.863 354.436 110.863 354.633 110.313 355.694C109.605 356.952 109.527 360.961 110.195 362.652C110.392 363.241 110.588 364.696 110.588 365.875C110.588 369.452 111.414 370.513 116.131 373.029C122.381 376.331 129.889 378.729 139.873 380.577C143.332 381.205 147.263 382.11 148.639 382.581C150.054 383.053 151.273 383.289 151.469 383.092C151.627 382.896 152.649 381.048 153.71 379.004C159.056 368.784 161.69 363.713 161.69 363.516C161.69 363.399 160.628 362.141 159.331 360.686C158.034 359.271 156.186 356.755 155.164 355.104C149.897 346.456 145.652 341.032 142.232 338.555C139.323 336.472 139.284 336.551 139.284 342.84C139.284 346.063 139.126 348.343 138.891 348.343C138.694 348.343 137.672 347.832 136.65 347.243C135.628 346.653 132.483 345.159 129.653 343.941C126.862 342.683 119.786 339.302 114.008 336.354C108.19 333.445 103.119 331.047 102.726 331.047C102.333 331.047 101.626 331.362 101.154 331.755Z" fill="#0A0A0F"/>
<path d="M273.012 344.491C272.816 344.766 272.265 345.788 271.833 346.771C271.401 347.754 267.391 356.048 262.91 365.246C258.429 374.444 252.847 386.119 250.488 391.19C245.103 402.747 245.3 402.354 244.553 402.511C243.884 402.629 237.792 399.917 227.335 394.846C218.53 390.522 212.673 387.77 203.75 383.721C201.47 382.66 197.264 380.655 194.394 379.24C191.525 377.786 189.009 376.724 188.852 376.842C188.38 377.117 185.904 381.363 181.344 389.814C179.143 393.902 177.059 397.597 176.705 397.951C176.194 398.541 176.194 398.737 176.666 399.327C177.295 400.113 186.965 406.442 195.299 411.591C198.561 413.596 202.61 416.151 204.34 417.252C212.673 422.519 223.994 428.809 236.534 435.177C245.889 439.854 249.781 441.505 251.668 441.505C253.594 441.505 258.193 437.771 260.394 434.39C260.905 433.604 262.753 430.853 264.522 428.298C270.929 418.824 273.563 414.893 275.292 412.102C276.275 410.491 278.634 406.717 280.56 403.651C282.486 400.585 285.513 395.593 287.281 392.566C289.05 389.5 291.841 384.822 293.453 382.149C295.065 379.437 297.345 375.466 298.485 373.304C299.624 371.142 301.708 367.487 303.084 365.128C304.459 362.809 305.56 360.726 305.56 360.529C305.56 360.332 302.966 358.839 299.782 357.227C296.558 355.655 289.483 351.999 284.019 349.169C278.516 346.338 273.916 344.019 273.72 344.019C273.563 344.019 273.248 344.255 273.012 344.491Z" fill="#0A0A0F"/>
<path d="M165.896 368.902C161.061 377.707 156.972 385.883 157.13 386.276C157.287 386.709 169.551 395.396 170.613 395.789C170.927 395.907 171.595 394.964 172.578 392.92C173.364 391.19 175.172 387.77 176.588 385.294C177.963 382.817 179.811 379.515 180.636 378.021C181.501 376.488 182.327 375.113 182.563 374.877C182.759 374.68 182.916 374.366 182.916 374.169C182.916 373.776 168.529 366.818 167.625 366.818C167.271 366.818 166.524 367.683 165.896 368.902Z" fill="#0A0A0F"/>
<path d="M122.774 383.839C122.774 384.154 123.127 386.512 123.521 389.067C124.307 393.863 124.543 395.278 126.115 405.459C127.137 411.906 127.451 412.574 129.889 413.203C131.068 413.517 131.657 413.478 132.522 413.046C134.724 411.906 134.724 411.827 134.252 404.634C133.191 389.46 132.915 385.883 132.64 385.608C132.522 385.49 130.635 384.979 128.473 384.507C126.311 384.036 124.149 383.564 123.678 383.446C123.049 383.289 122.774 383.407 122.774 383.839Z" fill="#0A0A0F"/>
</svg>
